Coordinates
version=1
nRows=16
nColumns=22
inDegrees=yes

Units are S.I. units (second, meters, Newtons, ...)
If the header above contains a line with 'inDegrees', this indicates whether rotational values are in degrees (yes) or radians (no).

endheader
time	pelvis_tilt	pelvis_list	pelvis_rotation	pelvis_tx	pelvis_ty	pelvis_tz	hip_flexion_r	hip_adduction_r	hip_rotation_r	knee_angle_r	ankle_angle_r	subtalar_angle_r	hip_flexion_l	hip_adduction_l	hip_rotation_l	knee_angle_l	ankle_angle_l	subtalar_angle_l	lumbar_extension	lumbar_bending	lumbar_rotation
      1.94000000	     -9.13819386	     -1.35578608	     -2.37330543	     -1.08110914	      0.97554500	      0.36364073	     29.23711490	     -2.46748071	     -2.79964201	    -33.92680087	     17.33720156	     -3.00885876	     13.63770656	      4.15413919	     -8.06827721	    -17.99142623	     21.08480336	     -4.66898654	     -0.72285524	      2.79160534	      1.59693798
      1.95000000	     -9.11374759	     -1.38069324	     -2.43836896	     -1.07981378	      0.97546665	      0.36373397	     29.50710036	     -2.36398469	     -2.87471664	    -33.49640072	     17.11085381	     -3.00860005	     13.55157097	      4.12259915	     -8.10175378	    -18.04628802	     21.16408569	     -4.71898072	     -0.78029286	      2.81145506	      1.60875938
      1.96000000	     -9.09242286	     -1.41261848	     -2.52436262	     -1.07850427	      0.97538312	      0.36392616	     29.78559553	     -2.23399593	     -2.93314248	    -33.06266042	     16.83599465	     -3.01516305	     13.47185627	      4.07247012	     -8.15637630	    -18.11170397	     21.24967420	     -4.78044934	     -0.83814785	      2.83234413	      1.64075523
      1.97000000	     -9.07502105	     -1.44274221	     -2.62779697	     -1.07718171	      0.97529400	      0.36417968	     30.07605405	     -2.09153424	     -2.97603211	    -32.63202417	     16.51170562	     -3.02221829	     13.39246568	      4.01778475	     -8.22997976	    -18.17094127	     21.33867377	     -4.84202719	     -0.89421247	      2.85031270	      1.68526266
      1.98000000	     -9.05987316	     -1.46467518	     -2.73988102	     -1.07584721	      0.97520176	      0.36447058	     30.37623505	     -1.94920770	     -3.00871069	    -32.20681546	     16.15109599	     -3.01698666	     13.30997374	      3.96834118	     -8.31305290	    -18.22025675	     21.42701055	     -4.89096196	     -0.95063872	      2.85857203	      1.73638877
      1.99000000	     -9.05230376	     -1.48904004	     -2.86138551	     -1.07449047	      0.97509942	      0.36480060	     30.68538316	     -1.79450804	     -3.02979363	    -31.78067122	     15.77948225	     -3.00583145	     13.22985557	      3.91006733	     -8.42371872	    -18.26057368	     21.52473175	     -4.93438346	     -0.99928644	      2.87232839	      1.78579899
      2.00000000	     -9.04309662	     -1.49844146	     -2.98160913	     -1.07312295	      0.97499793	      0.36514787	     30.99914784	     -1.65331886	     -3.04821779	    -31.36386562	     15.40384074	     -2.96641033	     13.14141070	      3.86905846	     -8.52451964	    -18.28834078	     21.61551421	     -4.96042002	     -1.05217344	      2.86789650	      1.83489109
      2.01000000	     -9.03881892	     -1.50597528	     -3.10681567	     -1.07172546	      0.97488333	      0.36552624	     31.31825851	     -1.50889486	     -3.05869830	    -30.94895817	     15.04554355	     -2.90418060	     13.04964780	      3.82589627	     -8.64084924	    -18.30450254	     21.71468827	     -4.97954049	     -1.09788049	      2.86337123	      1.87678527
      2.02000000	     -9.04109113	     -1.51320510	     -3.23799681	     -1.07030316	      0.97474684	      0.36592922	     31.64371967	     -1.36012768	     -3.06225057	    -30.53724501	     14.71768093	     -2.81556051	     12.96191335	      3.77993022	     -8.77163471	    -18.31912315	     21.82143166	     -4.99359128	     -1.13703778	      2.86225896	      1.91623023
      2.03000000	     -9.04372683	     -1.51287516	     -3.36479887	     -1.06885307	      0.97459087	      0.36636250	     31.97201817	     -1.22017775	     -3.07194784	    -30.13627432	     14.40472199	     -2.70670684	     12.87069662	      3.74155535	     -8.88977981	    -18.33132876	     21.93217365	     -5.00267656	     -1.17471973	      2.84649264	      1.95157208
      2.04000000	     -9.05048528	     -1.50814056	     -3.48804606	     -1.06735725	      0.97440504	      0.36679088	     32.30252014	     -1.08957064	     -3.09344932	    -29.74179773	     14.11893096	     -2.57988146	     12.78044831	      3.70894979	     -9.00850478	    -18.34290160	     22.05087212	     -5.00893852	     -1.20795732	      2.83141264	      1.97446277
      2.05000000	     -9.05245846	     -1.49256504	     -3.59868637	     -1.06581333	      0.97419987	      0.36721364	     32.62837491	     -0.98055149	     -3.14184694	    -29.35935227	     13.84210059	     -2.45044434	     12.68026557	      3.69185820	     -9.10679602	    -18.35029517	     22.17167986	     -5.01275555	     -1.24424772	      2.80149292	      1.98076292
      2.06000000	     -9.06109491	     -1.47693345	     -3.70100687	     -1.06419335	      0.97395966	      0.36760988	     32.95346865	     -0.88107262	     -3.21466119	    -28.97852127	     13.58672125	     -2.26838562	     12.58055279	      3.67551404	     -9.21692394	    -18.35453251	     22.29839965	     -5.01100260	     -1.26702220	      2.78230305	      1.96269063
      2.07000000	     -9.04144816	     -1.41994011	     -3.77684936	     -1.06250063	      0.97373496	      0.36794891	     33.25844370	     -0.84880448	     -3.34078038	    -28.62910445	     13.32790744	     -2.17755556	     12.43074863	      3.71963806	     -9.27886626	    -18.31933477	     22.41909192	     -5.01282370	     -1.31814614	      2.71399289	      1.90880785
      2.08000000	     -9.02445789	     -1.38309758	     -3.83926444	     -1.06077816	      0.97350387	      0.36828645	     33.54275970	     -0.80098176	     -3.47382469	    -28.25266614	     13.03071177	     -2.00021507	     12.29859164	      3.74014446	     -9.33078537	    -18.32233924	     22.53030489	     -5.01008250	     -1.37183147	      2.66582648	      1.87933545
      2.09000000	     -9.00308384	     -1.32053863	     -3.88953665	     -1.05893751	      0.97325169	      0.36860134	     33.82981818	     -0.79186577	     -3.63447647	    -27.91649645	     12.77881279	     -1.87621253	     12.12925570	      3.79437921	     -9.39438721	    -18.26743110	     22.65389356	     -5.00930013	     -1.41731598	      2.59429826	      1.78885577
